<?xml version="1.0" encoding="UTF-8" standalone="no"?>
<!DOCTYPE svg PUBLIC "-//W3C//DTD SVG 1.1//EN" "http://www.w3.org/Graphics/SVG/1.1/DTD/svg11.dtd">
<svg width="100%" height="100%" viewBox="0 0 80 240" version="1.1" xmlns="http://www.w3.org/2000/svg" xmlns:xlink="http://www.w3.org/1999/xlink" xml:space="preserve" xmlns:serif="http://www.serif.com/" style="fill-rule:evenodd;clip-rule:evenodd;stroke-linejoin:round;stroke-miterlimit:2;">
    <path d="M40,160C62.077,160 80,177.923 80,200C80,222.077 62.077,240 40,240C17.923,240 0,222.077 0,200C0,177.923 17.923,160 40,160ZM40,165C59.317,165 75,180.683 75,200C75,219.317 59.317,235 40,235C20.683,235 5,219.317 5,200C5,180.683 20.683,165 40,165Z" style="fill:white;"/>
    <path d="M10.95,227.486C14.289,214.56 26.037,205 40,205C53.963,205 65.711,214.56 69.05,227.486C61.757,235.191 51.436,240 40,240C28.564,240 18.243,235.191 10.95,227.486Z" style="fill:white;"/>
    <path d="M10.95,227.486C14.289,214.56 26.037,205 40,205C53.963,205 65.711,214.56 69.05,227.486C61.757,235.191 51.436,240 40,240C28.564,240 18.243,235.191 10.95,227.486ZM16.648,226.06C20.248,216.671 29.351,210 40,210C50.649,210 59.752,216.671 63.352,226.06C57.156,231.617 48.97,235 40,235C31.03,235 22.844,231.617 16.648,226.06L16.648,226.06Z" style="fill:white;"/>
    <g transform="matrix(1.85794,0,0,1.63643,-33.8644,-115.828)">
        <ellipse cx="39.756" cy="185.666" rx="8.073" ry="9.166" style="fill:white;"/>
        <path d="M39.756,176.499C44.212,176.499 47.829,180.607 47.829,185.666C47.829,190.725 44.212,194.832 39.756,194.832C35.3,194.832 31.683,190.725 31.683,185.666C31.683,180.607 35.3,176.499 39.756,176.499ZM39.756,179.555C42.727,179.555 45.138,182.293 45.138,185.666C45.138,189.038 42.727,191.777 39.756,191.777C36.785,191.777 34.374,189.038 34.374,185.666C34.374,182.293 36.785,179.555 39.756,179.555Z" style="fill:white;"/>
    </g>
    <g transform="matrix(0.807332,0,0,0.813866,0.574519,90.24)">
        <path d="M45.635,10.465C46.154,9.162 47.422,8.306 48.834,8.306C50.246,8.306 51.515,9.162 52.033,10.465L57.466,24.123C57.706,24.726 58.115,25.249 58.644,25.63C59.173,26.012 59.801,26.235 60.453,26.275L75.226,27.181C76.636,27.267 77.849,28.199 78.285,29.531C78.721,30.864 78.292,32.325 77.203,33.217L65.788,42.563C65.284,42.976 64.909,43.523 64.706,44.139C64.504,44.756 64.484,45.418 64.647,46.046L68.344,60.263C68.697,61.619 68.178,63.051 67.036,63.875C65.893,64.698 64.36,64.745 63.168,63.993L50.68,56.112C50.129,55.764 49.488,55.579 48.834,55.579C48.18,55.579 47.54,55.764 46.988,56.112L34.5,63.993C33.309,64.745 31.775,64.698 30.633,63.875C29.49,63.051 28.972,61.619 29.324,60.263L33.021,46.046C33.185,45.418 33.164,44.756 32.962,44.139C32.76,43.523 32.385,42.976 31.881,42.563L20.465,33.217C19.376,32.325 18.947,30.864 19.384,29.531C19.82,28.199 21.033,27.267 22.442,27.181L37.215,26.275C37.868,26.235 38.496,26.012 39.025,25.63C39.554,25.249 39.962,24.726 40.202,24.123L45.635,10.465Z" style="fill:rgb(0,63,255);"/>
        <path d="M45.635,10.465C46.154,9.162 47.422,8.306 48.834,8.306C50.246,8.306 51.515,9.162 52.033,10.465L57.466,24.123C57.706,24.726 58.115,25.249 58.644,25.63C59.173,26.012 59.801,26.235 60.453,26.275L75.226,27.181C76.636,27.267 77.849,28.199 78.285,29.531C78.721,30.864 78.292,32.325 77.203,33.217L65.788,42.563C65.284,42.976 64.909,43.523 64.706,44.139C64.504,44.756 64.484,45.418 64.647,46.046L68.344,60.263C68.697,61.619 68.178,63.051 67.036,63.875C65.893,64.698 64.36,64.745 63.168,63.993L50.68,56.112C50.129,55.764 49.488,55.579 48.834,55.579C48.18,55.579 47.54,55.764 46.988,56.112L34.5,63.993C33.309,64.745 31.775,64.698 30.633,63.875C29.49,63.051 28.972,61.619 29.324,60.263L33.021,46.046C33.185,45.418 33.164,44.756 32.962,44.139C32.76,43.523 32.385,42.976 31.881,42.563L20.465,33.217C19.376,32.325 18.947,30.864 19.384,29.531C19.82,28.199 21.033,27.267 22.442,27.181L37.215,26.275C37.868,26.235 38.496,26.012 39.025,25.63C39.554,25.249 39.962,24.726 40.202,24.123L45.635,10.465ZM48.834,12.466L54.01,25.476C54.509,26.731 55.359,27.819 56.46,28.613C57.56,29.406 58.866,29.871 60.224,29.955L74.297,30.817L63.423,39.72C62.373,40.579 61.593,41.717 61.172,43C60.752,44.284 60.709,45.66 61.049,46.967L64.571,60.509L52.675,53.002C51.527,52.277 50.195,51.893 48.834,51.893C47.474,51.893 46.141,52.277 44.994,53.002L33.098,60.509L36.62,46.967C36.959,45.66 36.917,44.284 36.496,43C36.076,41.717 35.295,40.579 34.246,39.72L23.372,30.817L37.444,29.955C38.802,29.871 40.108,29.406 41.209,28.613C42.31,27.819 43.159,26.731 43.659,25.476L48.834,12.466Z" style="fill:rgb(0,65,255);"/>
    </g>
    <g transform="matrix(0.807332,0,0,0.813866,0.574519,10.24)">
        <path d="M45.635,10.465C46.154,9.162 47.422,8.306 48.834,8.306C50.246,8.306 51.515,9.162 52.033,10.465L57.466,24.123C57.706,24.726 58.115,25.249 58.644,25.63C59.173,26.012 59.801,26.235 60.453,26.275L75.226,27.181C76.636,27.267 77.849,28.199 78.285,29.531C78.721,30.864 78.292,32.325 77.203,33.217L65.788,42.563C65.284,42.976 64.909,43.523 64.706,44.139C64.504,44.756 64.484,45.418 64.647,46.046L68.344,60.263C68.697,61.619 68.178,63.051 67.036,63.875C65.893,64.698 64.36,64.745 63.168,63.993L50.68,56.112C50.129,55.764 49.488,55.579 48.834,55.579C48.18,55.579 47.54,55.764 46.988,56.112L34.5,63.993C33.309,64.745 31.775,64.698 30.633,63.875C29.49,63.051 28.972,61.619 29.324,60.263L33.021,46.046C33.185,45.418 33.164,44.756 32.962,44.139C32.76,43.523 32.385,42.976 31.881,42.563L20.465,33.217C19.376,32.325 18.947,30.864 19.384,29.531C19.82,28.199 21.033,27.267 22.442,27.181L37.215,26.275C37.868,26.235 38.496,26.012 39.025,25.63C39.554,25.249 39.962,24.726 40.202,24.123L45.635,10.465Z" style="fill:rgb(0,63,255);fill-opacity:0;"/>
        <path d="M45.635,10.465C46.154,9.162 47.422,8.306 48.834,8.306C50.246,8.306 51.515,9.162 52.033,10.465L57.466,24.123C57.706,24.726 58.115,25.249 58.644,25.63C59.173,26.012 59.801,26.235 60.453,26.275L75.226,27.181C76.636,27.267 77.849,28.199 78.285,29.531C78.721,30.864 78.292,32.325 77.203,33.217L65.788,42.563C65.284,42.976 64.909,43.523 64.706,44.139C64.504,44.756 64.484,45.418 64.647,46.046L68.344,60.263C68.697,61.619 68.178,63.051 67.036,63.875C65.893,64.698 64.36,64.745 63.168,63.993L50.68,56.112C50.129,55.764 49.488,55.579 48.834,55.579C48.18,55.579 47.54,55.764 46.988,56.112L34.5,63.993C33.309,64.745 31.775,64.698 30.633,63.875C29.49,63.051 28.972,61.619 29.324,60.263L33.021,46.046C33.185,45.418 33.164,44.756 32.962,44.139C32.76,43.523 32.385,42.976 31.881,42.563L20.465,33.217C19.376,32.325 18.947,30.864 19.384,29.531C19.82,28.199 21.033,27.267 22.442,27.181L37.215,26.275C37.868,26.235 38.496,26.012 39.025,25.63C39.554,25.249 39.962,24.726 40.202,24.123L45.635,10.465ZM48.834,12.466L54.01,25.476C54.509,26.731 55.359,27.819 56.46,28.613C57.56,29.406 58.866,29.871 60.224,29.955L74.297,30.817L63.423,39.72C62.373,40.579 61.593,41.717 61.172,43C60.752,44.284 60.709,45.66 61.049,46.967L64.571,60.509L52.675,53.002C51.527,52.277 50.195,51.893 48.834,51.893C47.474,51.893 46.141,52.277 44.994,53.002L33.098,60.509L36.62,46.967C36.959,45.66 36.917,44.284 36.496,43C36.076,41.717 35.295,40.579 34.246,39.72L23.372,30.817L37.444,29.955C38.802,29.871 40.108,29.406 41.209,28.613C42.31,27.819 43.159,26.731 43.659,25.476L48.834,12.466Z" style="fill:rgb(0,65,255);"/>
    </g>
</svg>
